<svg width="65" height="31" fill="none" xmlns="http://www.w3.org/2000/svg"><path d="M25.778.875H4.47C2.182.875.327 2.708.327 4.97v21.06c0 2.262 1.855 4.095 4.143 4.095h21.308c2.289 0 4.144-1.833 4.144-4.095V4.97c0-2.262-1.855-4.095-4.144-4.095z" fill="#fff"/><path d="M24.681 23.564c-.365.471-.872.828-1.52 1.07-.646.242-1.382.363-2.205.363-.846 0-1.595-.19-2.247-.569a3.833 3.833 0 01-1.512-1.625c-.352-.708-.534-1.533-.548-2.475v-.781c0-1.508.365-2.685 1.096-3.53.73-.85 1.75-1.276 3.058-1.276 1.124 0 2.017.274 2.678.823.661.548 1.059 1.339 1.193 2.372h-1.72c-.195-1.202-.9-1.803-2.116-1.803-.786 0-1.385.281-1.796.843-.407.558-.618 1.378-.632 2.461v.768c0 1.079.23 1.917.687 2.516.462.594 1.103.891 1.921.891.898 0 1.536-.2 1.915-.603v-1.954h-2.081V19.74h3.829v3.825z" fill="#3B065E"/><path d="M29.947 24.997c-1.068 0-1.935-.331-2.601-.994-.661-.667-.992-1.554-.992-2.66v-.206c0-.74.144-1.4.43-1.98a3.293 3.293 0 011.22-1.365 3.248 3.248 0 011.749-.487c1.022 0 1.81.323 2.365.967.56.644.84 1.556.84 2.735v.672h-4.905c.051.613.257 1.097.618 1.454.365.356.823.534 1.373.534.772 0 1.401-.308 1.887-.925l.909.857a3.052 3.052 0 01-1.207 1.035 3.82 3.82 0 01-1.686.363zm-.201-6.355c-.462 0-.837.16-1.124.48-.282.32-.462.765-.54 1.337h3.21v-.124c-.036-.557-.187-.978-.45-1.261-.264-.288-.629-.432-1.096-.432zm6.638-3.003v1.803h1.325v1.234h-1.325v4.141c0 .284.055.49.166.617.116.123.32.185.61.185.195 0 .392-.023.59-.068v1.289a4.199 4.199 0 01-1.11.157c-1.294 0-1.942-.706-1.942-2.118v-4.203h-1.234v-1.234h1.234V15.64h1.686zm4.536 5.512v3.709h-1.755v-9.982h3.864c1.128 0 2.023.29 2.684.871.666.58 1 1.348 1 2.304 0 .977-.327 1.739-.979 2.282-.648.544-1.556.816-2.726.816H40.92zm0-1.391h2.109c.624 0 1.1-.145 1.429-.432.328-.293.492-.713.492-1.262 0-.539-.166-.969-.5-1.288-.332-.325-.79-.492-1.373-.501H40.92v3.483zm6.756 1.323c0-.727.146-1.38.437-1.961.291-.585.7-1.033 1.228-1.344.527-.315 1.133-.473 1.817-.473 1.013 0 1.834.323 2.462.967.634.644.976 1.499 1.027 2.564l.007.39c0 .732-.143 1.386-.43 1.961a3.101 3.101 0 01-1.22 1.337c-.528.316-1.138.473-1.832.473-1.059 0-1.907-.347-2.546-1.042-.633-.7-.95-1.63-.95-2.79v-.082zm1.686.144c0 .763.16 1.362.478 1.796.32.43.763.644 1.332.644.569 0 1.01-.22 1.325-.658.319-.439.478-1.08.478-1.926 0-.75-.164-1.344-.492-1.783-.324-.439-.765-.658-1.325-.658-.55 0-.987.217-1.31.651-.325.43-.486 1.074-.486 1.934zm10.647-2.263a4.202 4.202 0 00-.687-.055c-.772 0-1.292.293-1.56.878v5.073h-1.686v-7.418h1.61l.04.83c.408-.644.972-.967 1.693-.967.24 0 .44.032.597.096l-.007 1.563zm3.523-3.325v1.803h1.325v1.234h-1.325v4.141c0 .284.056.49.167.617.115.123.319.185.61.185.194 0 .39-.023.59-.068v1.289a4.196 4.196 0 01-1.11.157c-1.295 0-1.942-.706-1.942-2.118v-4.203h-1.235v-1.234h1.235V15.64h1.685z" fill="#fff"/><path fill-rule="evenodd" clip-rule="evenodd" d="M29.922 23.664v1.333c-1.057-.005-1.916-.337-2.576-.994-.661-.667-.992-1.554-.992-2.66v-.206c0-.74.144-1.4.43-1.98a3.292 3.292 0 011.22-1.365 3.247 3.247 0 011.749-.487c.057 0 .113.001.169.003v1.341a2.18 2.18 0 00-.176-.007c-.462 0-.837.16-1.124.48-.282.32-.462.765-.54 1.337h1.84v1.22h-1.869c.051.613.257 1.097.618 1.454.338.329.755.506 1.25.531z" fill="#3B065E"/></svg>