<svg width="19" height="19" fill="none" xmlns="http://www.w3.org/2000/svg"><path fill-rule="evenodd" clip-rule="evenodd" d="M5.013 9.588c0-2.482 1.998-4.508 4.463-4.508 2.473 0 4.476 2.026 4.476 4.508 0 2.491-1.999 4.508-4.476 4.508-2.465 0-4.463-2.017-4.463-4.508zm9.08-8.807H4.868C2.597.78.732 2.65.732 4.946v9.293c0 2.287 1.865 4.165 4.135 4.165h9.227c2.278 0 4.135-1.878 4.135-4.165V4.946c0-2.295-1.853-4.165-4.135-4.165zM4.868 1.822h9.227c1.71 0 3.101 1.4 3.101 3.124v9.293c0 1.723-1.39 3.124-3.101 3.124H4.867c-1.711 0-3.102-1.4-3.102-3.124V4.946c0-1.723 1.391-3.124 3.102-3.124zm10.147 1.315a.91.91 0 00-.908.914.91.91 0 00.908.915.91.91 0 00.908-.915.91.91 0 00-.908-.914zm.106 6.451c0-3.136-2.522-5.684-5.644-5.684-3.113 0-5.643 2.548-5.643 5.684 0 3.145 2.53 5.684 5.643 5.684 3.122 0 5.643-2.54 5.643-5.684z" fill="#fff"/></svg>