<svg width="54" height="54" fill="none" xmlns="http://www.w3.org/2000/svg"><path d="M45.81.75H7.866C3.79.75.487 4.04.487 8.1v37.8c0 4.06 3.303 7.35 7.378 7.35H45.81c4.075 0 7.378-3.29 7.378-7.35V8.1c0-4.06-3.303-7.35-7.378-7.35z" fill="#fff"/><path d="M43.857 41.474c-.651.846-1.553 1.485-2.706 1.92-1.153.435-2.462.652-3.927.652-1.507 0-2.841-.34-4.003-1.021-1.16-.681-2.058-1.653-2.692-2.916-.626-1.272-.951-2.753-.976-4.442v-1.403c0-2.707.65-4.82 1.951-6.337 1.301-1.526 3.117-2.289 5.448-2.289 2 0 3.59.492 4.767 1.477 1.178.984 1.886 2.403 2.125 4.257h-3.063c-.346-2.157-1.602-3.236-3.767-3.236-1.4 0-2.467.505-3.2 1.514-.724 1-1.099 2.473-1.124 4.417v1.378c0 1.936.408 3.441 1.223 4.516.823 1.066 1.964 1.6 3.422 1.6 1.597 0 2.733-.361 3.409-1.083V36.97h-3.706v-2.363h6.819v6.866z" fill="#3B065E"/></svg>