<svg width="116" height="54" fill="none" xmlns="http://www.w3.org/2000/svg"><path d="M45.81.75H7.866C3.79.75.486 4.04.486 8.1v37.8c0 4.06 3.304 7.35 7.379 7.35H45.81c4.075 0 7.378-3.29 7.378-7.35V8.1c0-4.06-3.303-7.35-7.378-7.35z" fill="#fff"/><path d="M43.857 41.474c-.651.846-1.553 1.485-2.706 1.92-1.153.435-2.462.652-3.928.652-1.506 0-2.84-.34-4.002-1.021-1.161-.681-2.058-1.653-2.693-2.916-.625-1.272-.95-2.753-.975-4.442v-1.403c0-2.707.65-4.82 1.951-6.337 1.301-1.526 3.117-2.289 5.448-2.289 2 0 3.59.492 4.767 1.477 1.178.984 1.886 2.403 2.125 4.257H40.78c-.346-2.157-1.602-3.236-3.768-3.236-1.4 0-2.466.505-3.2 1.514-.724 1-1.098 2.473-1.123 4.417v1.378c0 1.936.407 3.441 1.223 4.516.823 1.066 1.964 1.6 3.422 1.6 1.597 0 2.733-.361 3.409-1.083V36.97h-3.706v-2.363h6.819v6.866z" fill="#3B065E"/><path d="M53.234 44.046c-1.902 0-3.446-.595-4.632-1.784-1.177-1.198-1.766-2.789-1.766-4.774v-.37c0-1.328.255-2.514.766-3.556.519-1.05 1.243-1.866 2.174-2.448.93-.582 1.968-.874 3.113-.874 1.82 0 3.223.579 4.212 1.735.996 1.157 1.494 2.793 1.494 4.91v1.206h-8.733c.09 1.099.457 1.968 1.1 2.608.65.64 1.465.96 2.445.96 1.376 0 2.496-.554 3.36-1.661l1.618 1.538a5.432 5.432 0 01-2.149 1.858c-.89.435-1.89.652-3.002.652zm-.358-11.406c-.823 0-1.49.287-2 .86-.503.575-.825 1.375-.964 2.4h5.719v-.221c-.066-1-.334-1.756-.803-2.264-.47-.517-1.12-.775-1.952-.775zm11.821-5.39v3.236h2.36v2.215h-2.36v7.432c0 .509.099.878.297 1.108.206.221.568.332 1.087.332.346 0 .695-.041 1.05-.123v2.313a7.424 7.424 0 01-1.977.283c-2.306 0-3.458-1.267-3.458-3.802v-7.543h-2.2v-2.215h2.2V27.25h3.001zm8.078 9.893V43.8h-3.124V25.884h6.88c2.009 0 3.602.521 4.78 1.563 1.186 1.042 1.779 2.42 1.779 4.134 0 1.756-.581 3.122-1.742 4.098-1.153.976-2.771 1.464-4.855 1.464h-3.718zm0-2.498h3.756c1.111 0 1.96-.258 2.544-.775.585-.525.877-1.28.877-2.264 0-.968-.296-1.74-.89-2.313-.592-.582-1.407-.882-2.445-.899h-3.842v6.251zm12.031 2.375c0-1.304.26-2.477.779-3.52.519-1.05 1.247-1.853 2.186-2.41.939-.567 2.018-.85 3.236-.85 1.804 0 3.266.579 4.385 1.735 1.129 1.157 1.738 2.69 1.828 4.602l.013.702c0 1.312-.255 2.485-.766 3.519-.502 1.033-1.227 1.833-2.174 2.399-.939.566-2.026.85-3.26.85-1.887 0-3.398-.624-4.534-1.871-1.128-1.255-1.692-2.925-1.692-5.008v-.148zm3.002.258c0 1.37.284 2.445.852 3.224.569.771 1.36 1.157 2.372 1.157 1.013 0 1.8-.394 2.36-1.181.568-.788.852-1.94.852-3.458 0-1.345-.293-2.412-.877-3.2-.577-.787-1.363-1.18-2.36-1.18-.98 0-1.758.39-2.334 1.169-.576.77-.865 1.927-.865 3.47zm18.961-4.06a7.444 7.444 0 00-1.223-.099c-1.375 0-2.302.525-2.779 1.575V43.8h-3.002V30.486h2.866l.074 1.49c.725-1.157 1.729-1.736 3.014-1.736.428 0 .782.058 1.062.173l-.012 2.805zm6.275-5.968v3.236h2.359v2.215h-2.359v7.432c0 .509.099.878.296 1.108.206.221.568.332 1.087.332a4.63 4.63 0 001.05-.123v2.313a7.417 7.417 0 01-1.976.283c-2.306 0-3.459-1.267-3.459-3.802v-7.543h-2.198v-2.215h2.198V27.25h3.002z" fill="#fff"/><path fill-rule="evenodd" clip-rule="evenodd" d="M53.19 41.653v2.393c-1.882-.01-3.411-.604-4.588-1.784-1.177-1.198-1.766-2.79-1.766-4.774v-.37c0-1.329.255-2.514.766-3.556.519-1.05 1.243-1.866 2.174-2.448.93-.583 1.968-.874 3.113-.874.1 0 .201.002.3.006v2.406a3.784 3.784 0 00-.313-.013c-.823 0-1.49.288-2 .862-.503.574-.825 1.374-.964 2.4h3.277v2.19h-3.327c.09 1.099.457 1.968 1.1 2.608.601.592 1.344.91 2.227.954z" fill="#3B065E"/></svg>