<svg width="20" height="21" fill="none" xmlns="http://www.w3.org/2000/svg"><path d="M3.933 2.268c.067.989.234 1.955.5 2.877L3.1 6.48a16.473 16.473 0 01-.844-4.211h1.677zM14.89 15.623c.944.267 1.911.434 2.889.5v1.656a17.137 17.137 0 01-4.222-.834l1.333-1.322zM5 .045H1.111C.5.045 0 .545 0 1.157 0 11.59 8.456 20.045 18.889 20.045c.611 0 1.111-.5 1.111-1.11v-3.878c0-.612-.5-1.112-1.111-1.112-1.378 0-2.722-.222-3.967-.633a.931.931 0 00-.344-.055c-.29 0-.567.11-.79.322l-2.444 2.444a16.832 16.832 0 01-7.322-7.322l2.445-2.444c.31-.312.4-.745.277-1.134a12.623 12.623 0 01-.633-3.966C6.111.545 5.611.045 5 .045z" fill="#fff"/></svg>