<svg width="17" height="16" fill="none" xmlns="http://www.w3.org/2000/svg"><path d="M16.417 11.69v2.25c0 .209-.045.416-.133.607a1.504 1.504 0 01-.38.504 1.603 1.603 0 01-.563.316c-.21.067-.43.092-.65.073a16.232 16.232 0 01-6.832-2.303 15.057 15.057 0 01-4.75-4.5 14.347 14.347 0 01-2.43-6.502c-.02-.207.006-.416.076-.614a1.49 1.49 0 01.33-.532 1.6 1.6 0 01.53-.361C1.817.544 2.034.5 2.254.5h2.375c.384-.004.756.125 1.048.363.291.237.481.567.535.927.1.72.286 1.427.554 2.107.107.269.13.56.067.841-.064.28-.21.538-.423.742l-1.005.952a12.354 12.354 0 004.75 4.5l1.005-.952c.215-.202.487-.34.783-.4.296-.06.604-.038.887.062.719.254 1.465.43 2.225.525.385.052.736.235.987.516.25.28.384.64.375 1.007z" stroke="#fff" stroke-linecap="round" stroke-linejoin="round"/></svg>