<svg width="40" height="40" fill="none" xmlns="http://www.w3.org/2000/svg"><path d="M10.9 8.333c.1 1.484.35 2.934.75 4.317l-2 2a24.71 24.71 0 01-1.267-6.317H10.9zm16.433 20.034c1.417.4 2.867.65 4.334.75V31.6a25.71 25.71 0 01-6.334-1.25l2-1.983zM12.5 5H6.667C5.75 5 5 5.75 5 6.667 5 22.317 17.683 35 33.333 35 34.25 35 35 34.25 35 33.333v-5.816c0-.917-.75-1.667-1.667-1.667-2.066 0-4.083-.333-5.95-.95a1.398 1.398 0 00-.516-.083c-.434 0-.85.166-1.184.483l-3.666 3.667C17.3 26.55 13.433 22.7 11.033 17.983l3.667-3.666c.467-.467.6-1.117.417-1.7a18.933 18.933 0 01-.95-5.95C14.167 5.75 13.417 5 12.5 5z" fill="#fff"/></svg>