<svg width="21" height="13" fill="none" xmlns="http://www.w3.org/2000/svg"><path fill-rule="evenodd" clip-rule="evenodd" d="M20.176 1.693c-.26-.196-1.2-.196-2.124-.196-.949.02-1.893.02-2.117.106-.202.077-.656 1.188-1.244 2.327-.677 1.287-1.496 2.532-2.019 2.512-.685 0-.523-2.112-.474-3.68.008-1.02-.154-1.351-.3-1.44-.357-.254-1.342-.495-1.342-.495S7.6.602 7.183 1.89c.571.077 1.536-.098 1.16 3.883-.03.196-.455 1.83-1.83-.38-.348-.555-1.661-3.87-2.123-3.891-1.517-.029-3.025-.098-3.548.196-.494.294.657 2.568 2.599 5.627 1.573 2.51 3.247 4.458 6.146 4.944.551.057 1.962.119 2.416-.098.3-.147-.077-2.307.957-2.519.454-.086 2.221 2.258 2.886 2.52.406.163 1.298.232 2.206.195.985-.028 2.104.098 2.213-.584.244-1.49-2.983-3.438-3.073-4.348-.077-.662 1.18-1.879 1.817-2.814.79-1.135 1.662-2.499 1.167-2.927z" fill="#fff"/></svg>