<svg width="19" height="14" fill="none" xmlns="http://www.w3.org/2000/svg"><path fill-rule="evenodd" clip-rule="evenodd" d="M18.236 2.853s-.183-1.294-.714-1.857c-.677-.74-1.44-.752-1.776-.8-2.493-.184-6.23-.184-6.23-.184h-.02s-3.73 0-6.224.183c-.357.05-1.11.058-1.788.8-.53.564-.713 1.858-.713 1.858S.588 4.372.588 5.87v1.433c0 1.518.183 3.017.183 3.017s.182 1.294.713 1.87c.677.746 1.565.718 1.97.795 1.42.147 6.057.196 6.057.196s3.738-.02 6.231-.196c.337-.049 1.103-.049 1.776-.796.531-.575.714-1.87.714-1.87s.174-1.498.174-3.016V5.87c0-1.502-.17-3.017-.17-3.017zm-5.761 3.54l-4.82 2.616V3.755L9.84 4.951l2.635 1.441z" fill="#fff"/></svg>