<svg width="83" height="83" fill="none" xmlns="http://www.w3.org/2000/svg"><g clip-path="url(#clip0_218_473)"><path d="M77.813 7.94H5.186A5.188 5.188 0 000 13.126v49.281a5.188 5.188 0 005.188 5.188h31.125v5.187H25.937v2.594h31.125v-2.594H46.688v-5.188h31.124A5.188 5.188 0 0083 62.409V13.127a5.187 5.187 0 00-5.188-5.188zm-33.72 64.843h-5.187v-5.188h5.188v5.188zm36.313-10.375a2.594 2.594 0 01-2.594 2.594H5.189a2.594 2.594 0 01-2.594-2.594V13.127a2.594 2.594 0 012.594-2.594h72.624a2.594 2.594 0 012.594 2.594v49.281z" fill="#fff"/><rect x="4.83" y="12.77" width="73.339" height="46.635" rx="3.5" stroke="#fff"/><rect x="45.82" y="26.48" width="26.816" height="50.99" rx="2.5" fill="#BD72EF" stroke="#fff" stroke-width="3"/><g clip-path="url(#clip1_218_473)" fill="#fff"><path d="M59.228 42.998h-2.1v1.738a7.459 7.459 0 00-1.534.637l-1.231-1.23-2.968 2.968 1.23 1.23a7.55 7.55 0 00-.637 1.535h-1.737v4.2h1.737a7.47 7.47 0 00.637 1.534l-1.23 1.23 2.968 2.97 1.23-1.232c.493.275 1 .478 1.536.637v1.738h2.1c4.951 0 8.977-4.025 8.977-8.977s-4.026-8.978-8.978-8.978zm0 17.376h-1.52v-1.607l-.217-.058a6.907 6.907 0 01-1.796-.739l-.188-.116-1.144 1.144-2.143-2.157 1.144-1.144-.116-.188a6.907 6.907 0 01-.738-1.796l-.058-.217H50.83v-3.04h1.607l.058-.218c.16-.623.406-1.23.739-1.795l.115-.189-1.143-1.143 2.142-2.143 1.144 1.143.189-.115a6.912 6.912 0 011.795-.739l.217-.058v-1.621h1.535c4.634 0 8.398 3.764 8.398 8.398 0 4.633-3.764 8.398-8.398 8.398z"/><path d="M63.224 47.574l-3.996 3.996-.825-.825-.406.406.826.825-.826.825.406.406.825-.826 2.462 2.462.405-.406-2.462-2.461 3.997-3.997-.406-.405z"/><path d="M59.228 56.03a4.066 4.066 0 01-4.054-4.054 4.066 4.066 0 014.054-4.054v-.58a4.647 4.647 0 00-4.633 4.634 4.647 4.647 0 004.633 4.633v-.579zm.29-10.092h-.58v.478h.58v-.478zm5.734 5.748h-.478v.58h.478v-.58zm-5.734 5.836h-.58v.477h.58v-.477z"/></g><g clip-path="url(#clip2_218_473)" fill="#fff"><path d="M15.764 39.274a1.59 1.59 0 01-.826-.232l-.937-.564v8.688h3.4v-8.834l-.554.514a1.57 1.57 0 01-1.083.428zm5.147-4.2V47.17h3.405V34.726l-1.748-1.194-1.657 1.542zm7.404 2.049a1.6 1.6 0 01-.902-.277l-.67-.458v10.778h3.4V36.05l-.78.684a1.604 1.604 0 01-1.048.388zm4.447 10.047h3.4V30.824l-3.4 2.956v13.392z"/><path d="M33.9 26.86l1.405 1.364-7.06 6.1-5.294-3.617a.957.957 0 00-1.194.09l-6.124 5.692-1.627-.987v2.236l1.264.76a.958.958 0 001.149-.12l6.089-5.661 5.268 3.6a.961.961 0 001.168-.065l7.741-6.693 1.159 1.123 1.34-5.329L33.9 26.86z"/></g></g><defs><clipPath id="clip0_218_473"><path fill="#fff" d="M0 0h83v83H0z"/></clipPath><clipPath id="clip1_218_473"><path fill="#fff" transform="translate(49.961 42.709)" d="M0 0h18.534v18.534H0z"/></clipPath><clipPath id="clip2_218_473"><path fill="#fff" transform="translate(13.699 23.369)" d="M0 0h25.786v25.786H0z"/></clipPath></defs></svg>